<mxfile host="app.diagrams.net" agent="Mozilla/5.0 (Macintosh; Intel Mac OS X 10_15_7) AppleWebKit/537.36 (KHTML, like Gecko) Chrome/129.0.0.0 Safari/537.36" version="24.8.3">
  <diagram id="C5RBs43oDa-KdzZeNtuy" name="Page-1">
    <mxGraphModel dx="1764" dy="595" grid="1" gridSize="10" guides="1" tooltips="1" connect="1" arrows="1" fold="1" page="1" pageScale="1" pageWidth="827" pageHeight="1169" math="0" shadow="0">
      <root>
        <mxCell id="WIyWlLk6GJQsqaUBKTNV-0" />
        <mxCell id="WIyWlLk6GJQsqaUBKTNV-1" parent="WIyWlLk6GJQsqaUBKTNV-0" />
        <mxCell id="yJDKLL-mW4QxloJMJQi_-10" value="" style="edgeStyle=orthogonalEdgeStyle;rounded=0;orthogonalLoop=1;jettySize=auto;html=1;" edge="1" parent="WIyWlLk6GJQsqaUBKTNV-1" source="WIyWlLk6GJQsqaUBKTNV-6" target="yJDKLL-mW4QxloJMJQi_-9">
          <mxGeometry relative="1" as="geometry" />
        </mxCell>
        <mxCell id="yJDKLL-mW4QxloJMJQi_-3" value="" style="endArrow=classic;html=1;rounded=0;exitX=1;exitY=0.5;exitDx=0;exitDy=0;entryX=0;entryY=0.5;entryDx=0;entryDy=0;" edge="1" parent="WIyWlLk6GJQsqaUBKTNV-1" source="yJDKLL-mW4QxloJMJQi_-0" target="yJDKLL-mW4QxloJMJQi_-2">
          <mxGeometry width="50" height="50" relative="1" as="geometry">
            <mxPoint x="-80" y="430" as="sourcePoint" />
            <mxPoint x="-30" y="380" as="targetPoint" />
          </mxGeometry>
        </mxCell>
        <mxCell id="yJDKLL-mW4QxloJMJQi_-9" value="CSE 312" style="rhombus;whiteSpace=wrap;html=1;shadow=0;fontFamily=Helvetica;fontSize=12;align=center;strokeWidth=1;spacing=6;spacingTop=-4;fillColor=#ffe6cc;strokeColor=#d79b00;" vertex="1" parent="WIyWlLk6GJQsqaUBKTNV-1">
          <mxGeometry x="180" y="330" width="100" height="80" as="geometry" />
        </mxCell>
        <mxCell id="yJDKLL-mW4QxloJMJQi_-12" value="CSE 332" style="rhombus;whiteSpace=wrap;html=1;shadow=0;fontFamily=Helvetica;fontSize=12;align=center;strokeWidth=1;spacing=6;spacingTop=-4;fillColor=#ffe6cc;strokeColor=#d79b00;" vertex="1" parent="WIyWlLk6GJQsqaUBKTNV-1">
          <mxGeometry x="180" y="420" width="100" height="80" as="geometry" />
        </mxCell>
        <mxCell id="yJDKLL-mW4QxloJMJQi_-13" value="" style="endArrow=classic;html=1;rounded=0;entryX=0;entryY=0.5;entryDx=0;entryDy=0;exitX=0.5;exitY=1;exitDx=0;exitDy=0;" edge="1" parent="WIyWlLk6GJQsqaUBKTNV-1" source="WIyWlLk6GJQsqaUBKTNV-6" target="yJDKLL-mW4QxloJMJQi_-12">
          <mxGeometry width="50" height="50" relative="1" as="geometry">
            <mxPoint x="75" y="220" as="sourcePoint" />
            <mxPoint x="150" y="250" as="targetPoint" />
          </mxGeometry>
        </mxCell>
        <mxCell id="yJDKLL-mW4QxloJMJQi_-14" value="CSE 331" style="rhombus;whiteSpace=wrap;html=1;shadow=0;fontFamily=Helvetica;fontSize=12;align=center;strokeWidth=1;spacing=6;spacingTop=-4;fillColor=#f5f5f5;fontColor=#333333;strokeColor=#666666;" vertex="1" parent="WIyWlLk6GJQsqaUBKTNV-1">
          <mxGeometry y="170" width="100" height="80" as="geometry" />
        </mxCell>
        <mxCell id="yJDKLL-mW4QxloJMJQi_-15" value="" style="group" vertex="1" connectable="0" parent="WIyWlLk6GJQsqaUBKTNV-1">
          <mxGeometry x="-190" y="575.77" width="120" height="70" as="geometry" />
        </mxCell>
        <mxCell id="yJDKLL-mW4QxloJMJQi_-0" value="MATH 126" style="rounded=1;whiteSpace=wrap;html=1;fillColor=#d5e8d4;strokeColor=#82b366;" vertex="1" parent="yJDKLL-mW4QxloJMJQi_-15">
          <mxGeometry y="30" width="120" height="40" as="geometry" />
        </mxCell>
        <mxCell id="yJDKLL-mW4QxloJMJQi_-5" value="SU &#39;24" style="text;html=1;align=center;verticalAlign=middle;resizable=0;points=[];autosize=1;strokeColor=none;fillColor=none;" vertex="1" parent="yJDKLL-mW4QxloJMJQi_-15">
          <mxGeometry x="30" width="60" height="30" as="geometry" />
        </mxCell>
        <mxCell id="yJDKLL-mW4QxloJMJQi_-16" value="" style="group" vertex="1" connectable="0" parent="WIyWlLk6GJQsqaUBKTNV-1">
          <mxGeometry x="-190" y="372.23" width="120" height="70" as="geometry" />
        </mxCell>
        <mxCell id="WIyWlLk6GJQsqaUBKTNV-3" value="CSE 143" style="rounded=1;whiteSpace=wrap;html=1;fontSize=12;glass=0;strokeWidth=1;shadow=0;fillColor=#d5e8d4;strokeColor=#82b366;" parent="yJDKLL-mW4QxloJMJQi_-16" vertex="1">
          <mxGeometry y="30" width="120" height="40" as="geometry" />
        </mxCell>
        <mxCell id="yJDKLL-mW4QxloJMJQi_-4" value="SU &#39;24" style="text;html=1;align=center;verticalAlign=middle;resizable=0;points=[];autosize=1;strokeColor=none;fillColor=none;" vertex="1" parent="yJDKLL-mW4QxloJMJQi_-16">
          <mxGeometry x="30" width="60" height="30" as="geometry" />
        </mxCell>
        <mxCell id="yJDKLL-mW4QxloJMJQi_-17" value="" style="group" vertex="1" connectable="0" parent="WIyWlLk6GJQsqaUBKTNV-1">
          <mxGeometry y="356.3457050626192" width="112.62314743886742" height="105.77429493738083" as="geometry" />
        </mxCell>
        <mxCell id="WIyWlLk6GJQsqaUBKTNV-6" value="CSE 311" style="rhombus;whiteSpace=wrap;html=1;shadow=0;fontFamily=Helvetica;fontSize=12;align=center;strokeWidth=1;spacing=6;spacingTop=-4;fillColor=#dae8fc;strokeColor=#6c8ebf;" parent="yJDKLL-mW4QxloJMJQi_-17" vertex="1">
          <mxGeometry y="25.77429493738083" width="100" height="80" as="geometry" />
        </mxCell>
        <mxCell id="yJDKLL-mW4QxloJMJQi_-6" value="AU &#39;24" style="text;html=1;align=center;verticalAlign=middle;resizable=0;points=[];autosize=1;strokeColor=none;fillColor=none;rotation=40;" vertex="1" parent="yJDKLL-mW4QxloJMJQi_-17">
          <mxGeometry x="50" y="15.77429493738083" width="60" height="30" as="geometry" />
        </mxCell>
        <mxCell id="yJDKLL-mW4QxloJMJQi_-18" value="" style="group" vertex="1" connectable="0" parent="WIyWlLk6GJQsqaUBKTNV-1">
          <mxGeometry y="559.9957050626192" width="112.62314743886742" height="105.77429493738083" as="geometry" />
        </mxCell>
        <mxCell id="yJDKLL-mW4QxloJMJQi_-2" value="MATH 208" style="rhombus;whiteSpace=wrap;html=1;shadow=0;fontFamily=Helvetica;fontSize=12;align=center;strokeWidth=1;spacing=6;spacingTop=-4;fillColor=#dae8fc;strokeColor=#6c8ebf;" vertex="1" parent="yJDKLL-mW4QxloJMJQi_-18">
          <mxGeometry y="25.77429493738083" width="100" height="80" as="geometry" />
        </mxCell>
        <mxCell id="yJDKLL-mW4QxloJMJQi_-8" value="AU &#39;24" style="text;html=1;align=center;verticalAlign=middle;resizable=0;points=[];autosize=1;strokeColor=none;fillColor=none;rotation=40;" vertex="1" parent="yJDKLL-mW4QxloJMJQi_-18">
          <mxGeometry x="50" y="15.77429493738083" width="60" height="30" as="geometry" />
        </mxCell>
        <mxCell id="yJDKLL-mW4QxloJMJQi_-19" value="" style="endArrow=classic;html=1;rounded=0;entryX=0;entryY=0.5;entryDx=0;entryDy=0;exitX=0.5;exitY=0;exitDx=0;exitDy=0;" edge="1" parent="WIyWlLk6GJQsqaUBKTNV-1" source="WIyWlLk6GJQsqaUBKTNV-3" target="yJDKLL-mW4QxloJMJQi_-14">
          <mxGeometry width="50" height="50" relative="1" as="geometry">
            <mxPoint x="-60" y="400" as="sourcePoint" />
            <mxPoint x="-90" y="330" as="targetPoint" />
            <Array as="points">
              <mxPoint x="-130" y="210" />
            </Array>
          </mxGeometry>
        </mxCell>
        <mxCell id="yJDKLL-mW4QxloJMJQi_-20" value="CSE 351" style="rhombus;whiteSpace=wrap;html=1;shadow=0;fontFamily=Helvetica;fontSize=12;align=center;strokeWidth=1;spacing=6;spacingTop=-4;fillColor=#f5f5f5;fontColor=#333333;strokeColor=#666666;" vertex="1" parent="WIyWlLk6GJQsqaUBKTNV-1">
          <mxGeometry y="260" width="100" height="80" as="geometry" />
        </mxCell>
        <mxCell id="yJDKLL-mW4QxloJMJQi_-21" value="" style="endArrow=classic;html=1;rounded=0;exitX=0.75;exitY=0;exitDx=0;exitDy=0;entryX=0;entryY=0.5;entryDx=0;entryDy=0;" edge="1" parent="WIyWlLk6GJQsqaUBKTNV-1" source="WIyWlLk6GJQsqaUBKTNV-3" target="yJDKLL-mW4QxloJMJQi_-20">
          <mxGeometry width="50" height="50" relative="1" as="geometry">
            <mxPoint x="-60" y="356.35" as="sourcePoint" />
            <mxPoint x="-10" y="306.35" as="targetPoint" />
            <Array as="points">
              <mxPoint x="-100" y="300" />
            </Array>
          </mxGeometry>
        </mxCell>
        <mxCell id="yJDKLL-mW4QxloJMJQi_-23" value="" style="endArrow=classic;html=1;rounded=0;exitX=1;exitY=0.5;exitDx=0;exitDy=0;entryX=0;entryY=0.5;entryDx=0;entryDy=0;" edge="1" parent="WIyWlLk6GJQsqaUBKTNV-1" source="WIyWlLk6GJQsqaUBKTNV-3" target="WIyWlLk6GJQsqaUBKTNV-6">
          <mxGeometry width="50" height="50" relative="1" as="geometry">
            <mxPoint x="-50" y="520" as="sourcePoint" />
            <mxPoint y="470" as="targetPoint" />
          </mxGeometry>
        </mxCell>
      </root>
    </mxGraphModel>
  </diagram>
</mxfile>
